# xmcd
#
# Track frame offsets: 
#        150
#        29200
#        65325
#        78351
#        94577
#        131976
#        155801
#        175350
#        203700
#        217550
#        231951
#        263450
#        285339
#
# Disc length: 3974 seconds
#
# Revision: 17
# Processed by: cddbd v1.5.2PL0 Copyright (c) Steve Scherf et al.
# Submitted via: ExactAudioCopy v1.0b3
#
DISCID=b20f840d
DTITLE=Friedrich Gulda (piano) - Beethoven‧Piano Sonatas（Complete）（Dis
DTITLE=c 3）
DYEAR=1967
DGENRE=Classical
TTITLE0=Beethoven‧Piano Sonata in D major Op.10 No.3：I. Presto
TTITLE1=Beethoven‧Piano Sonata in D major Op.10 No.3：II. Largo e mesto
TTITLE2=Beethoven‧Piano Sonata in D major Op.10 No.3：III. Menuetto, al
TTITLE2=legro
TTITLE3=Beethoven‧Piano Sonata in D major Op.10 No.3：IV. Rondo, allegr
TTITLE3=o
TTITLE4=Beethoven‧Piano Sonata in C minor Op.13“Pathétique”：I. Grave–a
TTITLE4=llegro di molto e con brio
TTITLE5=Beethoven‧Piano Sonata in C minor Op.13“Pathétique”：II. Adagio
TTITLE5=cantabile
TTITLE6=Beethoven‧Piano Sonata in C minor Op.13“Pathétique”：III. Rondo
TTITLE6=, allegro
TTITLE7=Beethoven‧Piano Sonata in E major Op.14 No.1：I. Allegro
TTITLE8=Beethoven‧Piano Sonata in E major Op.14 No.1：II. Allegretto
TTITLE9=Beethoven‧Piano Sonata in E major Op.14 No.1：III. Rondo, alleg
TTITLE9=ro commodo
TTITLE10=Beethoven‧Piano Sonata in G major Op.14 No.2：I. Allegro
TTITLE11=Beethoven‧Piano Sonata in G major Op.14 No.2：II. Andante
TTITLE12=Beethoven‧Piano Sonata in G major Op.14 No.2：III. Rondo, alle
TTITLE12=gro assai
EXTD=YEAR: 1967
EXTT0=
EXTT1=
EXTT2=
EXTT3=
EXTT4=
EXTT5=
EXTT6=
EXTT7=
EXTT8=
EXTT9=
EXTT10=
EXTT11=
EXTT12=
PLAYORDER=
